<svg width="48" height="48" viewBox="0 0 48 48" fill="none" xmlns="http://www.w3.org/2000/svg">
<g filter="url(#filter_d)">
<rect x="10.8" y="10.6292" width="26.8" height="26.8367" rx="13.4" fill="url(#paintBug_linear)"/>
</g>
<path fill-rule="evenodd" clip-rule="evenodd" d="M26.3037 17.178C26.5158 16.8747 26.9335 16.801 27.2366 17.0135C27.5396 17.2261 27.6134 17.6442 27.4013 17.9476L26.3153 19.5007C27.0205 19.7263 27.501 19.9697 27.501 19.9697C27.501 19.9697 26.3266 21.9927 24.3345 21.9927C22.3424 21.9927 20.9269 20.1072 20.9269 20.1072C20.9269 20.1072 21.4288 19.7865 22.1728 19.5114L20.9904 18.1003C20.7527 17.8166 20.7897 17.3935 21.0731 17.1553C21.3565 16.9172 21.779 16.9541 22.0168 17.2379L23.5293 19.0429C23.5593 19.0787 23.5849 19.1167 23.6063 19.1563C23.7841 19.1356 23.9654 19.124 24.1484 19.124C24.4051 19.124 24.6615 19.1436 24.9118 19.177C24.9243 19.1536 24.9383 19.1307 24.9539 19.1084L26.3037 17.178ZM21.3374 22.0885C20.8058 21.7084 20.0014 20.716 20.0014 20.716C20.0014 20.716 17.9467 22.3465 17.9467 25.8038C17.9467 29.261 21.4989 31.3418 21.4989 31.3418C21.4989 31.3418 23.1962 29.6254 23.6128 27.4497C24.0294 25.2739 22.9965 22.858 22.9965 22.858C22.9965 22.858 21.869 22.4687 21.3374 22.0885ZM27.0626 22.0885C27.5942 21.7084 28.3986 20.716 28.3986 20.716C28.3986 20.716 30.4533 22.3465 30.4533 25.8038C30.4533 29.261 26.901 31.3418 26.901 31.3418C26.901 31.3418 25.2038 29.6254 24.7872 27.4497C24.3705 25.2739 25.4035 22.858 25.4035 22.858C25.4035 22.858 26.531 22.4687 27.0626 22.0885Z" fill="white"/>
<defs>
<filter id="filter_d" x="0.799988" y="0.629242" width="46.8" height="46.8367" filterUnits="userSpaceOnUse" color-interpolation-filters="sRGB">
<feFlood flood-opacity="0" result="BackgroundImageFix"/>
<feColorMatrix in="SourceAlpha" type="matrix" values="0 0 0 0 0 0 0 0 0 0 0 0 0 0 0 0 0 0 127 0"/>
<feOffset/>
<feGaussianBlur stdDeviation="5"/>
<feColorMatrix type="matrix" values="0 0 0 0 0.596078 0 0 0 0 0.764706 0 0 0 0 0.184314 0 0 0 0.7 0"/>
<feBlend mode="normal" in2="BackgroundImageFix" result="effect1_dropShadow"/>
<feBlend mode="normal" in="SourceGraphic" in2="effect1_dropShadow" result="shape"/>
</filter>
<linearGradient id="paintBug_linear" x1="10.8" y1="10.6292" x2="10.8" y2="37.466" gradientUnits="userSpaceOnUse">
<stop stop-color="#92BC2C"/>
<stop offset="1" stop-color="#AFC836"/>
</linearGradient>
</defs>
</svg>
