<svg width="48" height="48" viewBox="0 0 48 48" fill="none" xmlns="http://www.w3.org/2000/svg">
<g filter="url(#filter0_d)">
<rect x="10.8" y="10.7177" width="26.8" height="26.8367" rx="13.4" fill="url(#paintFire_linear)"/>
</g>
<path fill-rule="evenodd" clip-rule="evenodd" d="M26.4204 28.1079C26.5839 27.5092 26.2665 26.2784 26.2665 26.2784C26.2665 26.2784 26.0363 27.2811 25.6766 27.6517C25.3698 27.9678 24.9938 28.187 24.4547 28.2446C24.8955 28.0302 25.1987 27.5832 25.1987 27.0664C25.1987 26.341 24.6013 25.753 23.8644 25.753C23.1275 25.753 22.5301 26.341 22.5301 27.0664C22.5301 27.2645 22.5747 27.4524 22.6545 27.6209C22.1936 27.2532 22.1211 26.6637 22.1211 26.6637C22.1211 26.6637 21.6064 28.8033 23.0245 29.8099C24.4426 30.8164 27.2206 29.9512 27.2206 29.9512C27.2206 29.9512 23.2451 32.7523 20.2993 29.7037C17.7616 27.0775 19.6369 23.6201 19.6369 23.6201C19.6369 23.6201 19.5559 23.9408 19.5559 24.3132C19.5559 24.6855 19.7575 24.9688 19.7575 24.9688C19.7575 24.9688 20.3589 23.6995 20.8269 23.1833C21.2698 22.6948 21.825 22.2986 22.3045 21.9564C22.6737 21.693 22.998 21.4615 23.1917 21.2446C24.2586 20.05 23.6044 17.8741 23.6044 17.8741C23.6044 17.8741 24.8071 18.9358 25.1429 20.307C25.2708 20.8297 25.1885 21.4244 25.1149 21.9562C24.9954 22.8195 24.8988 23.5171 25.7622 23.4719C27.1575 23.3987 25.945 21.2446 25.945 21.2446C25.945 21.2446 29.11 22.9104 28.8736 25.8238C28.6371 28.7372 25.4141 29.3995 25.4141 29.3995C25.4141 29.3995 26.2569 28.7066 26.4204 28.1079Z" fill="white"/>
<defs>
<filter id="filter0_d" x="0.799988" y="0.717682" width="46.8" height="46.8367" filterUnits="userSpaceOnUse" color-interpolation-filters="sRGB">
<feFlood flood-opacity="0" result="BackgroundImageFix"/>
<feColorMatrix in="SourceAlpha" type="matrix" values="0 0 0 0 0 0 0 0 0 0 0 0 0 0 0 0 0 0 127 0"/>
<feOffset/>
<feGaussianBlur stdDeviation="5"/>
<feColorMatrix type="matrix" values="0 0 0 0 0.996078 0 0 0 0 0.619608 0 0 0 0 0.329412 0 0 0 0.7 0"/>
<feBlend mode="normal" in2="BackgroundImageFix" result="effect1_dropShadow"/>
<feBlend mode="normal" in="SourceGraphic" in2="effect1_dropShadow" result="shape"/>
</filter>
<linearGradient id="paintFire_linear" x1="10.8" y1="10.7177" x2="10.8" y2="37.5544" gradientUnits="userSpaceOnUse">
<stop stop-color="#FB9B51"/>
<stop offset="1" stop-color="#FBAE46"/>
</linearGradient>
</defs>
</svg>
