<svg width="48" height="48" viewBox="0 0 48 48" fill="none" xmlns="http://www.w3.org/2000/svg">
<g filter="url(#filter0_d)">
<rect x="10.8533" y="10.7177" width="26.8" height="26.8367" rx="13.4" fill="url(#paintFly_linear)"/>
</g>
<path fill-rule="evenodd" clip-rule="evenodd" d="M22.6772 30.398C24.6402 30.398 26.3207 29.3055 27.0145 27.7568C27.023 27.7379 24.2291 28.4839 24.3182 28.2202C24.358 28.1024 26.0706 27.4759 27.3184 26.7451C28.0356 26.3251 28.3659 25.436 28.3659 25.436C28.3659 25.436 27.1576 26.0234 26.5468 26.1724C25.3159 26.4728 24.2323 26.4404 24.2323 26.4091C24.2323 26.3415 26.0315 25.9991 28.5322 24.4732C29.7084 23.7554 30.0279 22.5191 30.0279 22.5191C30.0279 22.5191 28.7347 23.2905 27.953 23.5451C26.0991 24.149 24.4073 24.331 24.4073 24.2493C24.4073 24.0743 25.8961 23.6644 27.4746 22.8984C28.2954 22.5002 29.0062 21.9799 29.8299 21.4014C31.1777 20.4547 31.4 18.7687 31.4 18.7687C31.4 18.7687 30.0707 19.6273 29.4219 19.9124C26.7451 21.0889 24.3815 21.706 22.6772 21.8397C20.1046 22.0414 18 23.8387 18 26.1724C18 28.5061 20.0941 30.398 22.6772 30.398Z" fill="white"/>
<defs>
<filter id="filter0_d" x="0.853333" y="0.717682" width="46.8" height="46.8367" filterUnits="userSpaceOnUse" color-interpolation-filters="sRGB">
<feFlood flood-opacity="0" result="BackgroundImageFix"/>
<feColorMatrix in="SourceAlpha" type="matrix" values="0 0 0 0 0 0 0 0 0 0 0 0 0 0 0 0 0 0 127 0"/>
<feOffset/>
<feGaussianBlur stdDeviation="5"/>
<feColorMatrix type="matrix" values="0 0 0 0 0.615686 0 0 0 0 0.709804 0 0 0 0 0.894118 0 0 0 0.7 0"/>
<feBlend mode="normal" in2="BackgroundImageFix" result="effect1_dropShadow"/>
<feBlend mode="normal" in="SourceGraphic" in2="effect1_dropShadow" result="shape"/>
</filter>
<linearGradient id="paintFly_linear" x1="10.8533" y1="10.7177" x2="10.8533" y2="37.5544" gradientUnits="userSpaceOnUse">
<stop stop-color="#90A7DA"/>
<stop offset="1" stop-color="#A6C2F2"/>
</linearGradient>
</defs>
</svg>
