<svg width="48" height="48" viewBox="0 0 48 48" fill="none" xmlns="http://www.w3.org/2000/svg">
<g filter="url(#filter0_d)">
<rect x="10.8" y="10.8061" width="26.8" height="26.8367" rx="13.4" fill="url(#paintNormal_linear)"/>
</g>
<path fill-rule="evenodd" clip-rule="evenodd" d="M30.4533 24.2245C30.4533 27.6829 27.6536 30.4864 24.2 30.4864C20.7464 30.4864 17.9467 27.6829 17.9467 24.2245C17.9467 20.7662 20.7464 17.9626 24.2 17.9626C27.6536 17.9626 30.4533 20.7662 30.4533 24.2245ZM27.7733 24.2245C27.7733 26.2007 26.1735 27.8027 24.2 27.8027C22.2265 27.8027 20.6267 26.2007 20.6267 24.2245C20.6267 22.2483 22.2265 20.6463 24.2 20.6463C26.1735 20.6463 27.7733 22.2483 27.7733 24.2245Z" fill="white"/>
<defs>
<filter id="filter0_d" x="0.799988" y="0.806137" width="46.8" height="46.8367" filterUnits="userSpaceOnUse" color-interpolation-filters="sRGB">
<feFlood flood-opacity="0" result="BackgroundImageFix"/>
<feColorMatrix in="SourceAlpha" type="matrix" values="0 0 0 0 0 0 0 0 0 0 0 0 0 0 0 0 0 0 127 0"/>
<feOffset/>
<feGaussianBlur stdDeviation="5"/>
<feColorMatrix type="matrix" values="0 0 0 0 0.364706 0 0 0 0 0.34902 0 0 0 0 0.415686 0 0 0 0.7 0"/>
<feBlend mode="normal" in2="BackgroundImageFix" result="effect1_dropShadow"/>
<feBlend mode="normal" in="SourceGraphic" in2="effect1_dropShadow" result="shape"/>
</filter>
<linearGradient id="paintNormal_linear" x1="10.9728" y1="10.8061" x2="10.9728" y2="37.2969" gradientUnits="userSpaceOnUse">
<stop stop-color="#9298A4"/>
<stop offset="1" stop-color="#A3A49E"/>
</linearGradient>
</defs>
</svg>
